<svg xmlns="http://www.w3.org/2000/svg" width="2060" height="1460" viewBox="0 0 2060 1460">
    <defs>
        <linearGradient id="a" x1="1.356%" x2="90.884%" y1="81.954%" y2="12.157%">
            <stop offset="0%" stop-color="#1E0936" stop-opacity=".01"/>
            <stop offset="100%" stop-color="#1E0936" stop-opacity=".05"/>
        </linearGradient>
    </defs>
    <path fill="url(#a)" fill-rule="evenodd" d="M1726.322 3.694l171.856 98.964A27.559 27.559 0 0 1 1912 126.536v197.928c0 9.85-5.269 18.953-13.822 23.878l-171.856 98.964a27.706 27.706 0 0 1-27.644 0l-171.856-98.964A27.559 27.559 0 0 1 1513 324.464V126.536c0-9.85 5.269-18.953 13.822-23.878l171.856-98.964a27.706 27.706 0 0 1 27.644 0zm429 0l171.856 98.964A27.559 27.559 0 0 1 2341 126.536v197.928c0 9.85-5.269 18.953-13.822 23.878l-171.856 98.964a27.706 27.706 0 0 1-27.644 0l-171.856-98.964A27.559 27.559 0 0 1 1942 324.464V126.536c0-9.85 5.269-18.953 13.822-23.878l171.856-98.964a27.706 27.706 0 0 1 27.644 0zm-1290 754l171.856 98.964A27.559 27.559 0 0 1 1051 880.536v197.928c0 9.85-5.269 18.953-13.822 23.878l-171.856 98.964a27.706 27.706 0 0 1-27.644 0l-171.856-98.964A27.559 27.559 0 0 1 652 1078.464V880.536c0-9.85 5.269-18.953 13.822-23.878l171.856-98.964a27.706 27.706 0 0 1 27.644 0zm-435 0l171.856 98.964A27.559 27.559 0 0 1 616 880.536v197.928c0 9.85-5.269 18.953-13.822 23.878l-171.856 98.964a27.706 27.706 0 0 1-27.644 0l-171.856-98.964A27.559 27.559 0 0 1 217 1078.464V880.536c0-9.85 5.269-18.953 13.822-23.878l171.856-98.964a27.706 27.706 0 0 1 27.644 0zm-217 371l171.856 98.964A27.559 27.559 0 0 1 399 1251.536v197.928c0 9.85-5.269 18.953-13.822 23.878l-171.856 98.964a27.706 27.706 0 0 1-27.644 0l-171.856-98.964A27.559 27.559 0 0 1 0 1449.464v-197.928c0-9.85 5.269-18.953 13.822-23.878l171.856-98.964a27.706 27.706 0 0 1 27.644 0zm436 1l171.856 98.964A27.559 27.559 0 0 1 835 1252.536v197.928c0 9.85-5.269 18.953-13.822 23.878l-171.856 98.964a27.706 27.706 0 0 1-27.644 0l-171.856-98.964A27.559 27.559 0 0 1 436 1450.464v-197.928c0-9.85 5.269-18.953 13.822-23.878l171.856-98.964a27.706 27.706 0 0 1 27.644 0zm866-749l171.856 98.964A27.559 27.559 0 0 1 1701 503.536v197.928c0 9.85-5.269 18.953-13.822 23.878l-171.856 98.964a27.706 27.706 0 0 1-27.644 0l-171.856-98.964A27.559 27.559 0 0 1 1302 701.464V503.536c0-9.85 5.269-18.953 13.822-23.878l171.856-98.964a27.706 27.706 0 0 1 27.644 0zm-220 377l171.856 98.964A27.559 27.559 0 0 1 1481 880.536v197.928c0 9.85-5.269 18.953-13.822 23.878l-171.856 98.964a27.706 27.706 0 0 1-27.644 0l-171.856-98.964a27.559 27.559 0 0 1-13.822-23.878V880.536c0-9.85 5.269-18.953 13.822-23.878l171.856-98.964a27.706 27.706 0 0 1 27.644 0zm-220-377l171.856 98.964A27.559 27.559 0 0 1 1261 503.536v197.928c0 9.85-5.269 18.953-13.822 23.878l-171.856 98.964a27.706 27.706 0 0 1-27.644 0l-171.856-98.964A27.559 27.559 0 0 1 862 701.464V503.536c0-9.85 5.269-18.953 13.822-23.878l171.856-98.964a27.706 27.706 0 0 1 27.644 0zm220-377l171.856 98.964A27.559 27.559 0 0 1 1481 126.536v197.928c0 9.85-5.269 18.953-13.822 23.878l-171.856 98.964a27.706 27.706 0 0 1-27.644 0l-171.856-98.964A27.559 27.559 0 0 1 1082 324.464V126.536c0-9.85 5.269-18.953 13.822-23.878l171.856-98.964a27.706 27.706 0 0 1 27.644 0z" transform="translate(-65 -117)"/>
</svg>
