<svg version="1.1" viewBox="0 0 2060 1460" xmlns="http://www.w3.org/2000/svg">
 <path d="m0.34826-116.65v121.9a27.559 27.559 0 0 1 13.475-19.588l171.86-98.965a27.706 27.706 0 0 1 9.6113-3.3457zm203.34 0a27.706 27.706 0 0 1 9.6328 3.3457l171.86 98.965c8.553 4.925 13.822 14.027 13.822 23.877v197.93a27.559 27.559 0 0 1-13.822 23.877l-171.86 98.965a27.706 27.706 0 0 1-27.645 0l-171.86-98.965c-7.2963-4.2014-12.19-11.447-13.475-19.6v1247.9h1701a27.706 27.706 0 0 1-9.6328-3.3457l-171.86-98.965c-8.553-4.925-13.822-14.027-13.822-23.877v-197.93a27.559 27.559 0 0 1 13.822-23.877l171.86-98.965a27.706 27.706 0 0 1 27.645 0l171.86 98.965c8.553 4.925 13.822 14.027 13.822 23.877v197.93a27.559 27.559 0 0 1-13.822 23.877l-171.86 98.965a27.706 27.706 0 0 1-9.6114 3.3457h630.94v-122.9a27.559 27.559 0 0 1-13.475 19.588l-171.86 98.965a27.706 27.706 0 0 1-27.645 0l-171.86-98.965c-8.553-4.925-13.822-14.027-13.822-23.877v-197.93a27.559 27.559 0 0 1 13.822-23.877l171.86-98.965a27.706 27.706 0 0 1 27.645 0l171.86 98.965c7.2964 4.2014 12.19 11.447 13.475 19.6v-1246.9h-1277a27.706 27.706 0 0 1 9.6328 3.3457l171.86 98.965c8.553 4.925 13.822 14.027 13.822 23.877v197.93a27.559 27.559 0 0 1-13.822 23.877l-171.86 98.965a27.706 27.706 0 0 1-27.645 0l-171.86-98.965c-8.553-4.925-13.822-14.027-13.822-23.877v-197.93a27.559 27.559 0 0 1 13.822-23.877l171.86-98.965a27.706 27.706 0 0 1 9.6114-3.3457h-422.6a27.706 27.706 0 0 1 9.6328 3.3457l171.86 98.965c8.553 4.925 13.822 14.027 13.822 23.877v197.93a27.559 27.559 0 0 1-13.822 23.877l-171.86 98.965a27.706 27.706 0 0 1-27.645 0l-171.86-98.965c-8.553-4.925-13.822-14.027-13.822-23.877v-197.93a27.559 27.559 0 0 1 13.822-23.877l171.86-98.965a27.706 27.706 0 0 1 9.6114-3.3457zm636.43 376.66a27.706 27.706 0 0 1 13.205 3.6856l171.86 98.965c8.553 4.925 13.822 14.027 13.822 23.877v197.93a27.559 27.559 0 0 1-13.822 23.877l-171.86 98.965a27.706 27.706 0 0 1-27.645 0l-171.86-98.965c-8.553-4.925-13.822-14.027-13.822-23.877v-197.93a27.559 27.559 0 0 1 13.822-23.877l171.86-98.965a27.706 27.706 0 0 1 14.44-3.6856zm440 0a27.706 27.706 0 0 1 13.205 3.6856l171.86 98.965c8.553 4.925 13.822 14.027 13.822 23.877v197.93a27.559 27.559 0 0 1-13.822 23.877l-171.86 98.965a27.706 27.706 0 0 1-27.645 0l-171.86-98.965c-8.553-4.925-13.822-14.027-13.822-23.877v-197.93a27.559 27.559 0 0 1 13.822-23.877l171.86-98.965a27.706 27.706 0 0 1 14.44-3.6856zm-220 377a27.706 27.706 0 0 1 13.205 3.6856l171.86 98.965c8.553 4.925 13.822 14.027 13.822 23.877v197.93a27.559 27.559 0 0 1-13.822 23.877l-171.86 98.965a27.706 27.706 0 0 1-27.645 0l-171.86-98.965c-8.553-4.925-13.822-14.027-13.822-23.877v-197.93a27.559 27.559 0 0 1 13.822-23.877l171.86-98.965a27.706 27.706 0 0 1 14.44-3.6856zm430 0a27.706 27.706 0 0 1 13.205 3.6856l171.86 98.965c8.553 4.925 13.822 14.027 13.822 23.877v197.93a27.559 27.559 0 0 1-13.822 23.877l-171.86 98.965a27.706 27.706 0 0 1-27.645 0l-171.86-98.965c-8.553-4.925-13.822-14.027-13.822-23.877v-197.93a27.559 27.559 0 0 1 13.822-23.877l171.86-98.965a27.706 27.706 0 0 1 14.44-3.6856zm435 0a27.706 27.706 0 0 1 13.205 3.6856l171.86 98.965c8.553 4.925 13.822 14.027 13.822 23.877v197.93a27.559 27.559 0 0 1-13.822 23.877l-171.86 98.965a27.706 27.706 0 0 1-27.645 0l-171.86-98.965c-8.553-4.925-13.822-14.027-13.822-23.877v-197.93a27.559 27.559 0 0 1 13.822-23.877l171.86-98.965a27.706 27.706 0 0 1 14.44-3.6856z" fill="#fff" fill-rule="evenodd" style="paint-order:markers fill stroke"/>
</svg>
