<svg width="39.688mm" height="26.458mm" version="1.1" viewBox="0 0 39.688 26.458" xmlns="http://www.w3.org/2000/svg">
 <path d="m0 0v13.949c0-0.12994 0.072977-0.25988 0.2189-0.35727 0.12271-0.0818 0.24591-0.16352 0.36848-0.24542 0.146-0.09729 0.34078-0.14603 0.5357-0.14603 0.19491 0 0.38984 0.04874 0.53597 0.14603 0.29184 0.19478 0.29184 0.51964 0 0.7144-0.123 0.08183-0.24562 0.16351-0.36848 0.24543-0.29215 0.19467-0.77938 0.19467-1.0717 0-0.14592-0.097337-0.2189-0.22719-0.2189-0.35714v12.509h39.688v-20.438c0 0.12993-0.07308 0.25983-0.21906 0.35727-0.58033 0.38682-1.1606 0.77409-1.7411 1.1611-0.29217 0.19467-0.77956 0.19467-1.0715 0-0.29211-0.19477-0.29211-0.51985 0-0.71454 0.58034-0.387 1.1608-0.77404 1.7412-1.1609 0.14591-0.09739 0.34063-0.14604 0.53548-0.14603 0.195 1.5e-5 0.38999 0.04867 0.53593 0.14603 0.14601 0.09734 0.21906 0.2272 0.21906 0.35713v-6.0201h-14.33c0.19487-1.5e-5 0.38976 0.04876 0.53583 0.14616 0.29199 0.19467 0.29213 0.51972 0 0.7144-0.1227 0.08192-0.24563 0.16375-0.36835 0.24557-0.29199 0.19477-0.7794 0.19468-1.0714 0-0.29228-0.19467-0.29215-0.51972 0-0.7144 0.12256-0.0819 0.24548-0.16374 0.36835-0.24556 0.14592-0.09733 0.34067-0.14615 0.53557-0.14616zm16.183 0.20194c0.19487 0 0.38976 0.04868 0.53584 0.14602 0.27017 0.18013 0.29006 0.47165 0.06024 0.66847-0.02975 0.01547-0.05849 0.03178-0.08587 0.04988-0.26518 0.17691-3.0625 2.0419-3.3279 2.2187-0.34515 0.23021-0.37171 0.59642-0.05884 0.80504 0.31308 0.20864 0.8623 0.19078 1.2073-0.03925 0.10177-0.06772 0.57602-0.3843 1.137-0.75842l0.0074 0.0057c0.05848-0.03886 0.117-0.07776 0.17529-0.11663 0.29216-0.19478 0.77941-0.19478 1.0714 0 0.29213 0.19467 0.292 0.51961 0 0.71441l-0.01706 0.01144c-0.78123 0.52086-2.821 1.8805-3.0456 2.0304-0.34515 0.23011-0.36235 0.60243-0.03814 0.8186 0.32407 0.21614 0.88225 0.20441 1.2274-0.02571l1.8834-1.259c0.78182-0.52866 1.5996-1.0927 1.634-1.1436 1.3929-0.92876 2.7861-1.8576 4.1791-2.7863 0.29199-0.19478 0.7794-0.19478 1.0714 0 0.29229 0.19467 0.29213 0.51969 0 0.71427-0.12256 0.0819-0.24535 0.16374-0.36806 0.24556l-0.0014 0.0018c-0.26535 0.1767-0.16861 0.1125-0.4341 0.28932-0.34486 0.23019-0.37174 0.59615-0.05884 0.80491 0.31308 0.20864 0.86218 0.19077 1.2072-0.03924 0.26534-0.17691 0.16878-0.11251 0.43397-0.28932 0.01731-0.01151 0.03325-0.02377 0.04909-0.03598 1.036-0.69064 2.0718-1.3813 3.1078-2.0719 0.29199-0.19466 0.77951-0.19456 1.0717 0 0.292 0.19477 0.292 0.51978 0 0.71454-0.76747 0.51157-1.535 1.0232-2.3025 1.5349l0.0062 0.0033c-0.1041 0.0694-0.17825 0.11874-0.21179 0.1411-0.34515 0.23011-0.37146 0.59619-0.05864 0.80492 0.31307 0.20863 0.86225 0.19077 1.2074-0.03924 0.0772-0.05154 0.3697-0.24666 0.75192-0.50139 0.29431-0.13706 0.71102-0.11888 0.9721 0.05512 0.292 0.19467 0.292 0.51948 0 0.71426-0.06427 0.04287-0.12861 0.08585-0.19306 0.1288l0.0021 0.0018c-0.61372 0.40917-1.1517 0.76782-1.2606 0.84048-0.34516 0.23021-0.37171 0.59632-0.05892 0.80505 0.31304 0.20873 0.862 0.19073 1.2071-0.03939 0.26521-0.17682 3.0628-2.0418 3.3279-2.2185 0.02228-0.01478 0.04318-0.03022 0.06262-0.04607 0.44181-0.29456 0.88325-0.58904 1.325-0.88339 0.29217-0.19477 0.7794-0.19477 1.0714 0 0.29211 0.19457 0.29211 0.51964 0 0.7144-0.85662 0.57113-1.7131 1.1421-2.5699 1.7133l0.0021 0.0022c-0.5755 0.38359-1.0667 0.71109-1.1705 0.78031-0.34502 0.23011-0.37174 0.59618-0.05886 0.80491 0.31308 0.20864 0.86218 0.19087 1.2072-0.03924 0.12378-0.0826 0.79893-0.53265 1.5108-1.0071 0.29537-0.15367 0.73271-0.14067 1.0032 0.03963 0.27282 0.18189 0.29063 0.47724 0.0541 0.67406-0.7326 0.48844-1.441 0.96054-1.5681 1.0453-0.34498 0.23012-0.37174 0.59632-0.05867 0.80505 0.31309 0.20863 0.86206 0.19074 1.2072-0.03937 0.04539-0.03032 0.16591-0.11063 0.33548-0.22368l0.0021 0.0018c0.06812-0.04522 0.13604-0.09064 0.20395-0.13604 0.29203-0.19458 0.77954-0.19458 1.0717 0 0.29193 0.19477 0.29193 0.51977 0 0.71453l-0.0021 0.0021c-0.26709 0.17818-0.53412 0.35608-0.8012 0.53406-0.01671 0.0097-0.03344 0.01933-0.04937 0.03021-0.26516 0.17681-3.0623 2.0419-3.3274 2.2187-0.34529 0.23021-0.37204 0.59619-0.05904 0.80492 0.31309 0.20863 0.86232 0.19087 1.2073-0.03924 0.07722-0.05136 0.36853-0.24559 0.74929-0.49932 0.29243-0.19239 0.77674-0.19193 1.0676 0.0021 0.28506 0.18999 0.29086 0.50395 0.01963 0.69991-0.92871 0.61918-2.2562 1.5044-2.4348 1.6235-0.34518 0.23002-0.3719 0.59618-0.05889 0.80491 0.31311 0.20864 0.86221 0.19065 1.2072-0.03936 0.08156-0.05428 0.40225-0.268 0.81486-0.54322 0.29437-0.17829 0.76176-0.17328 1.0456 0.01567 0.29197 0.19477 0.29197 0.51948 0 0.71427-0.05856 0.03915-0.11727 0.07829-0.17602 0.11745-0.3892 0.2594-0.77843 0.51885-1.1675 0.77824l-0.01434 0.0096-3.216 2.1443c-0.03489 0.0232-0.06988 0.04659-0.10462 0.06985l0.0018 1.34e-4c-0.33816 0.23041-0.36291 0.59259-0.052 0.79987 0.31279 0.20873 0.86188 0.19092 1.2072-0.0391 0.01422-0.0095 0.03574-0.02392 0.06359-0.04226 0.29507-0.1645 0.74628-0.15472 1.0226 0.02941 0.292 0.19467 0.292 0.51953 0 0.7144-0.58048 0.38692-1.1609 0.77409-1.7413 1.1611-0.29212 0.19467-0.77954 0.19467-1.0717 0-0.2667-0.17789-0.28893-0.46418-0.06868-0.6609l-0.0097-0.0063c0.31825-0.2309 0.3359-0.58208 0.03157-0.78496-0.31307-0.20864-0.8622-0.19092-1.2072 0.0391-0.2652 0.17681-3.0625 2.0421-3.3279 2.219-0.02534 0.01668-0.04804 0.03448-0.06985 0.05267-0.37488 0.24984-0.74956 0.49985-1.1245 0.74967-1.1021 0.73477-2.2043 1.4695-3.3062 2.2042-0.29212 0.19477-0.77954 0.19477-1.0717 0-0.292-0.19468-0.292-0.51972 0-0.7144l0.0361-0.02391-0.0068-5e-3c0.1583-0.10545 0.31628-0.21086 0.47445-0.31639 0.31337-0.20874 0.31337-0.55755 0-0.7665-0.31337-0.20893-0.83595-0.20893-1.1495 0-0.32714 0.2182-0.65429 0.43614-0.98156 0.65424-0.29332 0.13015-0.70146 0.11013-0.95832-0.06108-0.29216-0.19477-0.29216-0.51985 0-0.71453 0.13472-0.08993 0.26945-0.17981 0.40417-0.26964l-0.0074-0.0052c0.257-0.17124 0.51387-0.34258 0.77073-0.51382 0.31644-0.21089 0.31644-0.5633 0-0.77428-0.31644-0.21098-0.84437-0.21098-1.1608 0-0.62894 0.41942-1.2582 0.8387-1.8871 1.258-0.05389 0.03594-0.09786 0.07622-0.13344 0.11909l-1.33e-4 2.68e-4c-0.59804 0.39872-1.1964 0.79761-1.7944 1.1962-0.29184 0.19477-0.77942 0.19477-1.0714 0-0.27164-0.18102-0.29016-0.47489-0.0566-0.67163 0.84494-0.56332 1.7814-1.1876 1.9295-1.2862 0.34512-0.23002 0.37174-0.59626 0.05884-0.80492-0.31292-0.20873-0.8623-0.19101-1.2073 0.0391-0.13896 0.09246-0.96985 0.64672-1.7692 1.1797l-0.0021-0.0021c-0.21716 0.14489-0.43474 0.29008-0.6522 0.43508-0.29199 0.19458-0.77941 0.19458-1.0714 0-0.2487-0.16588-0.28453-0.42564-0.10984-0.6195 0.48485-0.32316 0.87625-0.58415 0.96761-0.64508 0.34486-0.23002 0.37144-0.59619 0.05853-0.80492-0.31308-0.20873-0.86201-0.19078-1.207 0.03925-0.083917 0.05573-0.42039 0.28012-0.84989 0.56647l-0.013924-0.0093c-0.45117 0.3007-0.90231 0.60148-1.3533 0.90225-0.29213 0.19477-0.77954 0.19477-1.0717 0-0.29226-0.19487-0.2921-0.51988-2.446e-4 -0.71446 0.10163-0.06756 0.20164-0.13434 0.29903-0.19935 0.29884-0.19925 0.59761-0.3986 0.89635-0.59785 0.117-0.0779 0.20038-0.13322 0.23641-0.15724 0.34514-0.23012 0.3688-0.59817 0.052361-0.80915-0.31645-0.21088-0.86847-0.19512-1.2133 0.03501-0.036316 0.02402-0.11941 0.07954-0.23613 0.15764l-0.012818-0.0086c-0.28414 0.09398-0.64359 0.06326-0.87745-0.09273-0.29228-0.19478-0.29228-0.51959 0-0.71427 0.58018-0.38701 1.1608-0.77417 1.7412-1.1611 0.29199-0.1948 0.77952-0.19474 1.0717 1.28e-4 0.28922 0.19283 0.29144 0.51316 0.00766 0.70853l0.00215 0.0021c-0.31748 0.2308-0.33492 0.58164-0.030895 0.78441 0.31308 0.20874 0.86214 0.19088 1.2074-0.03925 0.26519-0.17681 3.0626-2.0419 3.3277-2.2187 0.34499-0.23011 0.37174-0.59638 0.05864-0.80492-0.31293-0.20873-0.86202-0.19091-1.2072 0.03911-0.09957 0.06659-0.55626 0.37108-1.1021 0.73504l-0.0021-2.62e-4c-0.15522 0.10358-0.31046 0.20719-0.46583 0.31078-0.29215 0.19477-0.77954 0.19477-1.0715 0-0.29215-0.19468-0.29215-0.51977 0-0.71453 0.12198-0.08142 0.24418-0.16273 0.36616-0.24406 0.10089-0.06729 0.20182-0.13468 0.30271-0.20194l-0.00628-0.0021c0.92868-0.61917 2.3924-1.5951 2.5807-1.7206 0.34514-0.23012 0.37203-0.59632 0.05883-0.80505-0.31292-0.20864-0.86187-0.19088-1.207 0.03924-0.23928 0.15952-2.5386 1.6925-3.1819 2.1212-0.29432 0.13852-0.71342 0.12103-0.97539-0.05363-0.27101-0.18094-0.28987-0.47354-0.057794-0.67036 0.67024-0.44685 1.2838-0.85582 1.4009-0.93411 0.34515-0.23001 0.37203-0.59618 0.058839-0.80491-0.31308-0.20873-0.8623-0.19078-1.2073 0.039248-0.10485 0.069907-0.60505 0.40339-1.1882 0.79205l-0.0024-0.0021c-0.52102 0.34737-1.0422 0.69466-1.5632 1.0421-0.292 0.19468-0.77928 0.19468-1.0712 0-0.29244-0.19487-0.29228-0.51964 0-0.7144 0.35015-0.23356 0.70022-0.46696 1.0506-0.70033 0.17606-0.11747 0.35263-0.23523 0.52863-0.35276l-0.00279-0.0021c0.10731-0.07168 0.1841-0.12285 0.21792-0.14568 0.34531-0.23002 0.37216-0.59619 0.058928-0.80492-0.31307-0.20863-0.86226-0.19073-1.2074 0.03937-0.06414 0.04273-0.2767 0.18464-0.56605 0.37738-0.29522 0.15005-0.72832 0.13612-0.99687-0.04296-0.29199-0.19468-0.29199-0.5197 0-0.71427l0.034445-0.02299c1.2999-0.86661 2.5995-1.7329 3.8984-2.5993 0.95885-0.63918 1.9179-1.2785 2.8765-1.9177 0.031919-0.0165 0.063152-0.03396 0.092427-0.05345 0.26535-0.1769 3.0628-2.042 3.3282-2.2188 0.34502-0.23001 0.37161-0.59605 0.05851-0.80478-0.31308-0.20864-0.86217-0.19087-1.2072 0.03925-0.02211 0.01478-0.06189 0.04095-0.11594 0.07696l-0.0022-0.0021c-0.21394 0.14265-0.42815 0.2855-0.64193 0.42823-0.29215 0.19477-0.77967 0.19477-1.0717 0-0.29199-0.19477-0.29184-0.51973 0-0.7144 0.44545-0.297 0.89067-0.59375 1.3358-0.89064 1.668-1.1122 3.3361-2.2244 5.0043-3.3365 0.14592-0.09733 0.34084-0.14602 0.5357-0.14602zm3.1475 0.85905c0.19486 0 0.38971 0.04862 0.5357 0.14602 0.29212 0.19477 0.29212 0.51972 0 0.7144-0.24543 0.16382-0.49098 0.32753-0.73641 0.49125-0.29213 0.19467-0.77964 0.19477-1.0719 0-0.2917-0.19467-0.29183-0.51972 0-0.7144 0.24557-0.16372 0.49125-0.32752 0.73682-0.49125 0.14606-0.09738 0.34099-0.14602 0.53583-0.14602zm11.896 0.93972c0.19489 2e-5 0.38977 0.04863 0.53581 0.14602 0.29198 0.19468 0.29198 0.51996 0 0.71453-0.24567 0.16382-0.49096 0.32752-0.7365 0.49111-0.29212 0.19478-0.77951 0.19478-1.0717 0-0.29197-0.19476-0.29197-0.51971 0-0.71439 0.24565-0.16382 0.49116-0.32745 0.73689-0.49125 0.14597-0.09734 0.34064-0.14603 0.53553-0.14602zm-23.526 3.8568c0.19483 0 0.38962 0.04875 0.53557 0.14616 0.29215 0.19468 0.29215 0.51972 0 0.7144-0.58033 0.38701-1.1607 0.77385-1.7414 1.1609-0.29184 0.19457-0.77941 0.19457-1.0714 0-0.29184-0.19487-0.29184-0.51964 0-0.7144 0.58046-0.38701 1.1609-0.77404 1.7414-1.1609 0.14607-0.09739 0.34099-0.14616 0.53583-0.14616zm-3.9402 2.6271c0.19488 0 0.38983 0.04866 0.53583 0.14603 0.29183 0.19468 0.29183 0.51972 0 0.7144-0.24572 0.16382-0.49123 0.32745-0.73711 0.49125-0.2917 0.19458-0.77928 0.19458-1.0712 0-0.29228-0.19476-0.29228-0.51978 0-0.71453 0.24543-0.16353 0.49125-0.32739 0.73668-0.49112 0.14607-0.09735 0.34094-0.14603 0.53584-0.14603zm33.546 1.2907c0.19483 0 0.38983 0.04866 0.53582 0.14602 0.2923 0.19477 0.29217 0.51959 0 0.71427-0.24533 0.16373-0.49099 0.32753-0.73658 0.49125-0.29193 0.19478-0.77948 0.19478-1.0716 0-0.29214-0.19477-0.29214-0.51959 0-0.71427 0.24557-0.16373 0.49126-0.32745 0.73698-0.49125 0.14589-0.09734 0.34058-0.14602 0.5354-0.14602zm-31.983 6.5384c0.19481 0 0.38978 0.04868 0.5357 0.14602 0.29215 0.19477 0.29229 0.51962 0 0.7144-0.24557 0.16373-0.49125 0.32729-0.73667 0.49112-0.29171 0.19468-0.77955 0.19468-1.0714 0-0.292-0.19477-0.292-0.51958 0-0.71427 0.24542-0.16363 0.49128-0.32752 0.73655-0.49125 0.14614-0.09733 0.34102-0.14602 0.53583-0.14602zm29.895 0.90225c0.19044 0.0063 0.37278 0.05387 0.50971 0.14521 0.31292 0.20864 0.28624 0.57464-0.05898 0.80478-0.26508 0.17681-0.1684 0.11241-0.43375 0.28933-0.34498 0.23002-0.89422 0.24798-1.2071 0.03926-0.313-0.20863-0.28634-0.57481 0.05862-0.80491 0.26537-0.1768 0.1689-0.11255 0.43424-0.28945 0.17248-0.11501 0.39588-0.17692 0.61536-0.18404 0.02741-0.0021 0.05475-0.0021 0.08196-1.38e-4zm-31.485 3.0311c0.19049 0.0063 0.37275 0.05382 0.50972 0.14506 0.31292 0.20875 0.28619 0.57488-0.058522 0.80492-0.26548 0.17681-0.16889 0.11251-0.43439 0.28932-0.34499 0.23012-0.89408 0.24784-1.2073 0.03911-0.31279-0.20874-0.28609-0.57481 0.059065-0.80492 0.26503-0.1769 0.16865-0.11249 0.43371-0.28932 0.19415-0.12939 0.45281-0.1916 0.69771-0.18417zm24.984 1.1698c0.19486 0 0.38973 0.04875 0.53588 0.14617 0.29197 0.19477 0.29197 0.51973 0 0.7144-0.24559 0.16382-0.49105 0.3275-0.73656 0.49112-0.292 0.19485-0.77967 0.19485-1.0718 0-0.29199-0.19468-0.29199-0.51964 0-0.7144 0.24559-0.16363 0.49139-0.3275 0.73697-0.49112 0.14606-0.09739 0.3407-0.14617 0.53555-0.14617zm-2.6945 1.6879c0.19046 0.0063 0.37274 0.05389 0.50971 0.1452 0.31296 0.20864 0.2862 0.57465-0.05885 0.80476-0.26534 0.17672-3.0628 2.0419-3.3282 2.2188-0.34502 0.23-0.89411 0.24772-1.207 0.03911-0.31308-0.20874-0.28661-0.57491 0.05852-0.80491 0.26519-0.17681 3.0628-2.0419 3.3282-2.2187 0.1725-0.11499 0.39613-0.17702 0.61569-0.18416 0.02747-0.0021 0.05468-0.0021 0.0819-1.42e-4z" fill="#ffffff"/>
</svg>
