<svg version="1.1" viewBox="0 0 2060 1460" xmlns="http://www.w3.org/2000/svg">
 <path transform="translate(-65 -117)" d="m1726.3 3.694 171.86 98.964a27.559 27.559 0 0 1 13.822 23.878v197.93c0 9.85-5.269 18.953-13.822 23.878l-171.86 98.964a27.706 27.706 0 0 1-27.644 0l-171.86-98.964a27.559 27.559 0 0 1-13.822-23.878v-197.93c0-9.85 5.269-18.953 13.822-23.878l171.86-98.964a27.706 27.706 0 0 1 27.644 0zm429 0 171.86 98.964a27.559 27.559 0 0 1 13.822 23.878v197.93c0 9.85-5.269 18.953-13.822 23.878l-171.86 98.964a27.706 27.706 0 0 1-27.644 0l-171.86-98.964a27.559 27.559 0 0 1-13.822-23.878v-197.93c0-9.85 5.269-18.953 13.822-23.878l171.86-98.964a27.706 27.706 0 0 1 27.644 0zm-1290 754 171.86 98.964a27.559 27.559 0 0 1 13.822 23.878v197.93c0 9.85-5.269 18.953-13.822 23.878l-171.86 98.964a27.706 27.706 0 0 1-27.644 0l-171.86-98.964a27.559 27.559 0 0 1-13.822-23.878v-197.93c0-9.85 5.269-18.953 13.822-23.878l171.86-98.964a27.706 27.706 0 0 1 27.644 0zm-435 0 171.86 98.964a27.559 27.559 0 0 1 13.822 23.878v197.93c0 9.85-5.269 18.953-13.822 23.878l-171.86 98.964a27.706 27.706 0 0 1-27.644 0l-171.86-98.964a27.559 27.559 0 0 1-13.822-23.878v-197.93c0-9.85 5.269-18.953 13.822-23.878l171.86-98.964a27.706 27.706 0 0 1 27.644 0zm-217 371 171.86 98.964a27.559 27.559 0 0 1 13.822 23.878v197.93c0 9.85-5.269 18.953-13.822 23.878l-171.86 98.964a27.706 27.706 0 0 1-27.644 0l-171.86-98.964a27.559 27.559 0 0 1-13.822-23.878v-197.93c0-9.85 5.269-18.953 13.822-23.878l171.86-98.964a27.706 27.706 0 0 1 27.644 0zm436 1 171.86 98.964a27.559 27.559 0 0 1 13.822 23.878v197.93c0 9.85-5.269 18.953-13.822 23.878l-171.86 98.964a27.706 27.706 0 0 1-27.644 0l-171.86-98.964a27.559 27.559 0 0 1-13.822-23.878v-197.93c0-9.85 5.269-18.953 13.822-23.878l171.86-98.964a27.706 27.706 0 0 1 27.644 0zm866-749 171.86 98.964a27.559 27.559 0 0 1 13.822 23.878v197.93c0 9.85-5.269 18.953-13.822 23.878l-171.86 98.964a27.706 27.706 0 0 1-27.644 0l-171.86-98.964a27.559 27.559 0 0 1-13.822-23.878v-197.93c0-9.85 5.269-18.953 13.822-23.878l171.86-98.964a27.706 27.706 0 0 1 27.644 0zm-220 377 171.86 98.964a27.559 27.559 0 0 1 13.822 23.878v197.93c0 9.85-5.269 18.953-13.822 23.878l-171.86 98.964a27.706 27.706 0 0 1-27.644 0l-171.86-98.964a27.559 27.559 0 0 1-13.822-23.878v-197.93c0-9.85 5.269-18.953 13.822-23.878l171.86-98.964a27.706 27.706 0 0 1 27.644 0zm-220-377 171.86 98.964a27.559 27.559 0 0 1 13.822 23.878v197.93c0 9.85-5.269 18.953-13.822 23.878l-171.86 98.964a27.706 27.706 0 0 1-27.644 0l-171.86-98.964a27.559 27.559 0 0 1-13.822-23.878v-197.93c0-9.85 5.269-18.953 13.822-23.878l171.86-98.964a27.706 27.706 0 0 1 27.644 0zm220-377 171.86 98.964a27.559 27.559 0 0 1 13.822 23.878v197.93c0 9.85-5.269 18.953-13.822 23.878l-171.86 98.964a27.706 27.706 0 0 1-27.644 0l-171.86-98.964a27.559 27.559 0 0 1-13.822-23.878v-197.93c0-9.85 5.269-18.953 13.822-23.878l171.86-98.964a27.706 27.706 0 0 1 27.644 0z" fill="#1a1a1a" fill-rule="evenodd"/>
</svg>
