<svg version="1.1" viewBox="0 0 418 341.75" xmlns="http://www.w3.org/2000/svg">
 <path d="m418 0h-418v69l39-24c1-1 2-1 3 0l14 8c1 1 2 1 3 0l31-19c1-1 2-1 3 0l65 39c1 1 2 1 3 0l31-19c1-1 2-1 3 0l74 44c1 1 2 2 2 3v47c0 1-1 2-2 3l-14 8c-1 1-2 2-2 3v27c0 1 1 2 2 3l23 13c1 1 2 1 3 0l23-13c1-1 2-1 3 0l74 44c1 1 2 2 2 3v27c0 1 1 2 2 3l31 19c1 1 2 2 2 3zm-11 183v27c0 1-1 2-2 3l-23 13c-1 1-2 1-3 0l-23-13c-1-1-2-2-2-3v-27c0-1 1-2 2-3l23-14c1-1 2-1 3 0l23 14c1 1 2 2 2 3zm-15 130c0-1-1-2-2-3l-15-8c-1-1-2-1-3 0l-15 8c-1 1-2 2-2 3v16c0 1 1 2 2 3l1 1 15 8c1 1 2 1 3 0l14-8c1-1 2-2 2-3zm-36-211v6c0 1-1 2-2 3l-5 3c-1 1-2 1-3 0l-5-3c-1-1-2-2-2-3v-6c0-1 1-2 2-3l5-3c1-1 2-1 3 0l5 3c1 1 2 2 2 3zm-26 15v27c0 1-1 2-2 3l-23 13c-1 1-2 1-3 0l-23-14c-1-1-2-2-2-3v-27c0-1 1-2 2-3l23-13c1-1 2-1 3 0l23 14c1 1 2 2 2 3zm-34 51v17c0 1-1 2-2 3l-14 8c-1 1-2 1-3 0l-14-8c-1-1-2-2-2-3v-17c0-1 1-2 2-3l14-8c1-1 2-1 3 0l14 8c1 1 2 2 2 3zm-38 96c0-1-1-2-2-3l-15-8c-1-1-2-1-3 0l-15 8c-1 1-2 2-2 3v16c0 1 1 2 2 3l1 1 15 8c1 1 2 1 3 0l14-8c1-1 2-2 2-3zm-72-245v27c0 1-1 2-2 3l-23 13c-1 1-2 1-3 0l-23-13c-1-1-2-2-2-3v-27c0-1 1-2 2-3l23-13h3l23 13c1 1 2 2 2 3zm-18 108c0-1-1-2-2-3l-15-8c-1-1-2-1-3 0l-15 8c-1 1-2 2-2 3v17c0 1 1 2 2 3l15 8c1 1 2 1 3 0l15-8c1-1 2-2 2-3zm-76-57c0-1-1-2-2-3l-15-8c-1-1-2-1-3 0l-15 8c-1 1-2 2-2 3v17c0 1 1 2 2 3l15 8c1 1 2 1 3 0l15-8c1-1 2-2 2-3zm-35 31c0-1-1-2-2-3l-6-3c-1-1-2-1-3 0l-6 3c-1 1-2 2-2 3v6c0 1 1 2 2 3l6 3c1 1 2 1 3 0l6-3c1-1 2-2 2-3z" fill="#ffffff"/>
</svg>
